<mxfile host="65bd71144e">
    <diagram id="AZaj8ttXmYlg_u9WsOdM" name="Página-1">
        <mxGraphModel dx="571" dy="427" grid="1" gridSize="10" guides="1" tooltips="1" connect="1" arrows="1" fold="1" page="1" pageScale="1" pageWidth="827" pageHeight="1169" math="0" shadow="0">
            <root>
                <mxCell id="0"/>
                <mxCell id="1" parent="0"/>
                <mxCell id="2" value="Persona&amp;nbsp;" style="swimlane;fontStyle=0;childLayout=stackLayout;horizontal=1;startSize=30;horizontalStack=0;resizeParent=1;resizeParentMax=0;resizeLast=0;collapsible=1;marginBottom=0;whiteSpace=wrap;html=1;" vertex="1" parent="1">
                    <mxGeometry x="230" y="170" width="210" height="140" as="geometry"/>
                </mxCell>
                <mxCell id="7" value="TNombre: 1 Texto&lt;br&gt;Primer apellido: 1 Texto&lt;br&gt;Segundo apellido: 0..1 Texto&lt;br&gt;Fecha de nacimiento: 1 Tiempo&lt;br&gt;Sexo: 1 Texto&lt;br&gt;Número de identificación: 0..1 Texto&lt;br&gt;&lt;br&gt;" style="text;html=1;align=center;verticalAlign=middle;resizable=0;points=[];autosize=1;strokeColor=none;fillColor=none;" vertex="1" parent="2">
                    <mxGeometry y="30" width="210" height="110" as="geometry"/>
                </mxCell>
            </root>
        </mxGraphModel>
    </diagram>
</mxfile>